<?xml version="1.0" encoding="UTF-8"?>
<svg width="24" height="24" viewBox="0 0 24 24" fill="none" xmlns="http://www.w3.org/2000/svg">
  <path d="M19 17H5M19 17C19.5523 17 20 16.5523 20 16V12C20 11.4477 19.5523 11 19 11M19 17C18.4477 17 18 16.5523 18 16V12C18 11.4477 18.4477 11 19 11M5 17C4.44772 17 4 16.5523 4 16V12C4 11.4477 4.44772 11 5 11M5 17C5.55228 17 6 16.5523 6 16V12C6 11.4477 5.55228 11 5 11M5 11L7.5 5.5C7.79667 4.90751 8.42252 4.5 9.1085 4.5H14.8915C15.5775 4.5 16.2033 4.90751 16.5 5.5L19 11M9 14H10M14 14H15" stroke="#3B82F6" stroke-width="1.5" stroke-linecap="round" stroke-linejoin="round"/>
</svg>